<svg xmlns="http://www.w3.org/2000/svg" xmlns:xlink="http://www.w3.org/1999/xlink" viewBox="0 0 100 100">
  <defs>
    <path id="reuse-0" d="M54.739 86.549c-.739-7.811-4.275-26.556-4.275-32.48 0-6.09 3.27-9.844 3.789-14.273a1.039 1.039 0 0 0-1.033-1.162H27.862a1.039 1.039 0 0 0-1.033 1.166c.519 4.429 3.79 8.183 3.79 14.273 0 5.924-3.537 24.669-4.276 32.48a2.8 2.8 0 0 0 2.166 2.992 64.863 64.863 0 0 0 12.032.91 64.863 64.863 0 0 0 12.032-.91 2.8 2.8 0 0 0 2.166-2.996Z" class="d"/>
    <path id="reuse-1" d="m53.771 22.648-.155 2.319a12.092 12.092 0 0 1-5.357 9.257H32.824a12.091 12.091 0 0 1-5.358-9.257l-.155-2.319Z" class="i"/>
    <path id="reuse-2" d="M44.4 19.34a1.1 1.1 0 0 1-1.1 1.1h-5.515a4.737 4.737 0 0 1-2.632-.8l-3.126-2.084a2.534 2.534 0 0 0-1.408-.427h-20.4a1.1 1.1 0 0 1 0-2.205h20.4a4.736 4.736 0 0 1 2.631.8l3.126 2.084a2.534 2.534 0 0 0 1.409.427H43.3a1.1 1.1 0 0 1 1.1 1.105Z" class="i"/>
    <path id="reuse-3" d="M14.632 9.969h-2.2l-.919 1.831a7.013 7.013 0 0 0-.739 3.133h5.512a7 7 0 0 0-.74-3.133Z" class="l"/>
    <path id="reuse-4" d="M17.389 8.315a2.756 2.756 0 0 1-2.757 2.756h-2.2a2.756 2.756 0 0 1 0-5.512h2.205a2.756 2.756 0 0 1 2.752 2.756Z" class="l"/>
    <path id="reuse-5" d="M81.658 60.866a1.858 1.858 0 0 0-1.858-1.857H61.692a1.857 1.857 0 0 0-1.857 1.857v21.359a.929.929 0 0 0 .928.929h19.966a.929.929 0 0 0 .929-.929Z" class="n"/>
    <path id="reuse-6" d="M85.837 63.188h-2.786a1.393 1.393 0 0 1-1.393-1.388v5.572a1.857 1.857 0 0 1 1.857-1.858h1.857a1.858 1.858 0 0 1 1.858 1.858v6.5a1.858 1.858 0 0 1-1.858 1.858h-1.857a1.857 1.857 0 0 1-1.857-1.858v5.572a1.393 1.393 0 0 1 1.393-1.393h2.786a4.179 4.179 0 0 0 4.179-4.179v-6.5a4.179 4.179 0 0 0-4.179-4.184Z" class="p"/>
  </defs>
  <defs>
    <style>
      .a,.p{fill:#e8f4fa}.a{stroke:#daedf7;stroke-miterlimit:10}.b,.c{fill:#45413c}.b{opacity:.15}.c,.f,.g,.h,.k,.o{stroke:#45413c;stroke-linecap:round;stroke-linejoin:round}.d{fill:#dea47a}.e{fill:#f0c2a1}.f{fill:none}.g,.i{fill:#656769}.h,.j{fill:#525252}.k,.l{fill:#87898c}.m{fill:#bdbec0}.n{fill:#fff}.o,.q{fill:#c0dceb}
    </style>
  </defs>
  <circle cx="50.88" cy="55.544" r="40" class="a"/>
  <ellipse cx="40.265" cy="90.176" class="b" rx="14.332" ry="2.205"/>
  <ellipse cx="70.63" cy="85.593" class="b" rx="10.215" ry="1.857"/>
  <path d="m14.632 5.559-.3-.61a.892.892 0 0 0-1.6 0l-.3.61Zm0 11.576-.3.61a.892.892 0 0 1-1.6 0l-.3-.61Z" class="c"/>
  <use xlink:href="#reuse-0" class="d"/>
  <path d="M27.194 41.633a1.039 1.039 0 0 1 .668-.243H53.22a1.039 1.039 0 0 1 .668.243 12.491 12.491 0 0 0 .365-1.837 1.039 1.039 0 0 0-1.033-1.162H27.862a1.039 1.039 0 0 0-1.033 1.166 12.491 12.491 0 0 0 .365 1.833Z" class="e"/>
  <use xlink:href="#reuse-0" class="f"/>
  <path d="M52.364 36.922a.892.892 0 0 0-.8-.493H29.516a.892.892 0 0 0-.8.493l-.856 1.712h25.36Z" class="g"/>
  <path d="M49.056 34.717a.892.892 0 0 0-.8-.493H32.824a.892.892 0 0 0-.8.493l-.856 1.712h18.744Z" class="h"/>
  <use xlink:href="#reuse-1" class="i"/>
  <path d="m53.624 24.853.147-2.205h-26.46l.147 2.205h26.166z" class="j"/>
  <use xlink:href="#reuse-1" class="f"/>
  <path d="M55.976 22.1a1.653 1.653 0 0 0-1.654-1.653H26.76a1.653 1.653 0 0 0-1.654 1.653.552.552 0 0 0 .551.552h29.768a.552.552 0 0 0 .551-.552Z" class="k"/>
  <use xlink:href="#reuse-2" class="i"/>
  <path d="M44.4 19.34a1.1 1.1 0 0 0-1.1-1.1h-5.515a16.7 16.7 0 0 1-3.277-.325l-2.914-.583a2.543 2.543 0 0 1 .433.232l3.126 2.084a4.737 4.737 0 0 0 2.632.8H43.3a1.1 1.1 0 0 0 1.1-1.108Z" class="j"/>
  <use xlink:href="#reuse-2" class="f"/>
  <path d="M42.441 16.526a.892.892 0 0 0-.8-.493h-2.2a.892.892 0 0 0-.8.493l-.856 1.712H43.3Z" class="g"/>
  <path d="M39.439 13.276h2.205v2.756h-2.205z" class="h"/>
  <path d="M43.355 12.29a.68.68 0 0 1-.609.986h-4.41a.68.68 0 0 1-.609-.986l.116-.232a1.784 1.784 0 0 1 1.6-.987h2.2a1.783 1.783 0 0 1 1.595.987Z" class="k"/>
  <path d="M50.782 58.479H30.3" class="f"/>
  <use xlink:href="#reuse-3" class="l"/>
  <path d="m15.546 11.8-.914-1.828h-2.2l-.919 1.828a6.991 6.991 0 0 0-.285.654 2.735 2.735 0 0 0 1.2.274h2.205a2.742 2.742 0 0 0 1.2-.274 7 7 0 0 0-.287-.654Z" class="i"/>
  <use xlink:href="#reuse-3" class="f"/>
  <use xlink:href="#reuse-4" class="l"/>
  <path d="M12.427 7.764h2.205a2.757 2.757 0 0 1 2.527 1.654 2.757 2.757 0 0 0-2.527-3.859h-2.2A2.757 2.757 0 0 0 9.9 9.418a2.755 2.755 0 0 1 2.527-1.654Z" class="m"/>
  <use xlink:href="#reuse-4" class="f"/>
  <use xlink:href="#reuse-5" class="n"/>
  <path d="M79.729 85.323H61.763a1 1 0 0 1-1-1v-1.2h19.966v1.2a1 1 0 0 1-1 1Z" class="o"/>
  <use xlink:href="#reuse-5" class="f"/>
  <use xlink:href="#reuse-6" class="p"/>
  <path d="M83.515 65.509h.465v-2.321h-.929a1.393 1.393 0 0 1-1.393-1.388v5.572a1.857 1.857 0 0 1 1.857-1.863Zm-.464 12.537h.929v-2.321h-.465a1.857 1.857 0 0 1-1.857-1.858v5.572a1.393 1.393 0 0 1 1.393-1.393Z" class="q"/>
  <use xlink:href="#reuse-6" class="f"/>
</svg>
